<?xml version="1.0" encoding="utf-8"?>
<!-- Generator: Adobe Illustrator 25.0.0, SVG Export Plug-In . SVG Version: 6.00 Build 0)  -->
<svg version="1.1" id="Layer_1" xmlns="http://www.w3.org/2000/svg" xmlns:xlink="http://www.w3.org/1999/xlink" x="0px" y="0px"
	 viewBox="0 0 130.1 42.2" style="enable-background:new 0 0 130.1 42.2;" xml:space="preserve">
<style type="text/css">
	.st0{fill:#4F4E5B;}
	.st1{fill:#FFFFFF;}
</style>
<rect x="37.5" y="5.8" class="st0" width="57.4" height="29.6"/>
<path class="st1" d="M0,0.7v40.9c0,0.4,0.3,0.7,0.7,0.7h128.8c0.4,0,0.7-0.3,0.7-0.7V0.7c0-0.4-0.3-0.7-0.7-0.7H0.7
	C0.3,0,0,0.3,0,0.7z M77.3,30.4c-4.1-3.5-8.2-7-12.3-10.5c-0.3-0.2-0.6-0.2-0.9,0c-3.7,3.5-7.5,7-11.2,10.5
	c-0.1,0.1-0.3,0.2-0.4,0.2h-7.7c-0.6,0-0.9-0.7-0.4-1.1c6.6-6.2,13.2-12.5,19.7-18.7c0.3-0.2,0.6-0.2,0.9,0
	c6.6,6.2,13.2,12.5,19.7,18.7c0.4,0.4,0.1,1.1-0.5,1.1h-6.5C77.5,30.6,77.4,30.5,77.3,30.4z"/>
</svg>
