<svg id="Layer_1" data-name="Layer 1" xmlns="http://www.w3.org/2000/svg" viewBox="0 0 315.73 93.42"><defs><style>.cls-1{fill:#c9076b;}</style></defs><path class="cls-1" d="M186.24,331.81c-89.05-93.32-5.72-112.34,11-76.46-22.68-28.68-59-7.75-44.38,26.18C160.45,299.28,174.87,316.54,186.24,331.81Z" transform="translate(-145.8 -238.39)"/><path class="cls-1" d="M237.07,260.24c-3-20.18-13.77-11.83-22.61-4.15,9.13-13,21.87-23.22,25.3-3.4,3.57,20.64-1.39,40.65-7.88,50.31C235.81,293.63,239,277.49,237.07,260.24Z" transform="translate(-145.8 -238.39)"/><path class="cls-1" d="M180.34,319.66c5.78-6.15,7.75-13.82,10.39-21.14,2.47-6.86,4.47-13.89,7.94-20.35a1.72,1.72,0,0,0,.06-1.47A34.2,34.2,0,0,1,197.2,270a4.8,4.8,0,0,1,2.05-4.53,11.16,11.16,0,0,1,3.64-2.09c-.87.88-1.73,1.75-2.61,2.62a5.41,5.41,0,0,0-1.49,5.32c.35,1.61.65,3.24,1.1,4.82a3.25,3.25,0,0,1-.25,2.55c-3,6-4.8,12.46-6.89,18.8-1.54,4.65-3,9.3-4.85,13.85a18.39,18.39,0,0,1-4.42,6.83A4.74,4.74,0,0,1,180.34,319.66Z" transform="translate(-145.8 -238.39)"/><path class="cls-1" d="M196.64,311.3a8.27,8.27,0,0,1,6.47-1.23,20.84,20.84,0,0,0,6.58.73c2.36-.15,3.47-1.07,3.78-3.38.51-3.87-.31-7.61-1.34-11.29-1.66-5.9-3.81-11.63-6-17.34a7.21,7.21,0,0,1,1.37-7.92c-1.73,5.61.66,10.25,2.18,15s3.72,9.07,4.73,13.89a28,28,0,0,1,.84,8.54c-.3,2.91-2.11,4.5-5,4.76a12,12,0,0,1-5.94-1,9.87,9.87,0,0,0-8.29.67c-2.09,1-6.83,3.34-9.26,4.58" transform="translate(-145.8 -238.39)"/><path class="cls-1" d="M210.53,273.4a138.45,138.45,0,0,0,7.16,20.49,34.74,34.74,0,0,0,3.56,6.09c2.16,3,4.48,5.71,8.9,4.72a3.67,3.67,0,0,1-5,1.63,9.9,9.9,0,0,1-4.45-3.79,50,50,0,0,1-6.31-13.05c-1.69-5.39-3.94-14.5-5.12-20.06" transform="translate(-145.8 -238.39)"/><path class="cls-1" d="M201.73,260a8.66,8.66,0,0,1-1.54-3.58,2.08,2.08,0,0,1,1.6-2.59,4.63,4.63,0,0,1,6.14,5c-.2,1.64-.54,3.25-.83,4.88-.13.67-.55,1.46.26,1.91s1.41-.14,1.95-.69l.32-.25c-.38,1.54-1.33,2.24-2.7,2s-1.49-1.37-1.45-2.51a6.53,6.53,0,0,1,.73-2.42,12.91,12.91,0,0,0,1-2.77,3.62,3.62,0,0,0-4.31-4.37,1.91,1.91,0,0,0-1.81,2.24A19.91,19.91,0,0,0,201.73,260Z" transform="translate(-145.8 -238.39)"/><path class="cls-1" d="M209.87,258.65c.19-3.38-1.49-5.62-4.81-5.74-.36,0-.59,0-.79,0s-.46.06-1.07.1a9.56,9.56,0,0,1,2.15-.52c3.87-.41,5.7,1.9,5.34,5.78,0,.35-.07.67-.12,1s-.15,1-.4,2c-.14.59-.34,1.28-.6,2.06" transform="translate(-145.8 -238.39)"/><path class="cls-1" d="M294.53,320.11v-5.32h-.86v-.85h.86v-.29a2.89,2.89,0,0,1,.72-2.16,2.13,2.13,0,0,1,1.5-.57,2.6,2.6,0,0,1,1,.18l-.16.86a1.73,1.73,0,0,0-.71-.14c-1,0-1.2.84-1.2,1.79v.33h1.49v.85h-1.49v5.32Z" transform="translate(-145.8 -238.39)"/><path class="cls-1" d="M296,320.42h-1.73v-5.31h-.87v-1.48h.87a3.17,3.17,0,0,1,.81-2.37,2.47,2.47,0,0,1,1.72-.66,2.91,2.91,0,0,1,1.08.21l.23.09-.27,1.52-.37-.17a1.28,1.28,0,0,0-.58-.12c-.26,0-.89,0-.89,1.48v0h1.5v1.48H296Zm-1.1-.62h.48v-5.32h1.49v-.23h-1.49v-.64c0-2.15,1.22-2.22,2-2.05l0-.25a2.35,2.35,0,0,0-.6-.08,1.84,1.84,0,0,0-1.29.49,2.57,2.57,0,0,0-.61,1.93v.6H294v.23h.87Z" transform="translate(-145.8 -238.39)"/><path class="cls-1" d="M309.9,317a3,3,0,0,1-3.07,3.28,2.93,2.93,0,0,1-3-3.17,3,3,0,0,1,3.06-3.28A2.92,2.92,0,0,1,309.9,317ZM305,317c0,1.35.78,2.37,1.88,2.37s1.87-1,1.87-2.4c0-1-.52-2.37-1.85-2.37S305,315.86,305,317Z" transform="translate(-145.8 -238.39)"/><path class="cls-1" d="M306.83,320.56a3.24,3.24,0,0,1-3.28-3.48,3.34,3.34,0,0,1,3.38-3.59,3.24,3.24,0,0,1,3.28,3.48A3.33,3.33,0,0,1,306.83,320.56Zm.1-6.45a2.71,2.71,0,0,0-2.75,3,2.61,2.61,0,0,0,2.65,2.86,2.72,2.72,0,0,0,2.76-3A2.62,2.62,0,0,0,306.93,314.11Zm-.05,5.61c-1.27,0-2.19-1.13-2.19-2.68,0-1.35.68-2.71,2.21-2.71s2.16,1.39,2.16,2.68C309.06,318.56,308.12,319.72,306.88,319.72Zm0-4.77c-1.17,0-1.59,1.13-1.59,2.09,0,1.19.66,2.06,1.57,2.06s1.56-.88,1.56-2.09C308.44,316.3,308.12,315,306.9,315Z" transform="translate(-145.8 -238.39)"/><path class="cls-1" d="M317.65,315.86c0-.72,0-1.35,0-1.92h1l0,1.21h.05a1.85,1.85,0,0,1,1.71-1.35,1,1,0,0,1,.32,0v1.06a1.48,1.48,0,0,0-.38,0,1.59,1.59,0,0,0-1.51,1.44,3.83,3.83,0,0,0-.05.52v3.29h-1.11Z" transform="translate(-145.8 -238.39)"/><path class="cls-1" d="M319.07,320.42h-1.73v-4.56c0-.79,0-1.38,0-1.9l0-.33h1.62v.52a2,2,0,0,1,1.88-.62l.23.06v1.7l-.38-.09a1.48,1.48,0,0,0-.31,0,1.26,1.26,0,0,0-1.2,1.18,3.23,3.23,0,0,0-.05.47ZM318,319.8h.49v-3a4.48,4.48,0,0,1,.05-.57,2.63,2.63,0,0,1,.28-.79h-.41l-.06-.3,0-.91h-.35c0,.45,0,1,0,1.61Zm2.42-5.69a1.51,1.51,0,0,0-1.37,1,1.69,1.69,0,0,1,1.31-.6h.07v-.43Z" transform="translate(-145.8 -238.39)"/><path class="cls-1" d="M328.66,317.23a2,2,0,0,0,2.11,2.14,4,4,0,0,0,1.71-.32l.19.81a5.12,5.12,0,0,1-2.05.38,2.86,2.86,0,0,1-3-3.11c0-1.87,1.09-3.33,2.89-3.33a2.62,2.62,0,0,1,2.55,2.91,4.81,4.81,0,0,1,0,.52Zm3.29-.8a1.61,1.61,0,0,0-1.56-1.83,1.87,1.87,0,0,0-1.72,1.83Z" transform="translate(-145.8 -238.39)"/><path class="cls-1" d="M330.62,320.55a3.17,3.17,0,0,1-3.35-3.42c0-2.15,1.32-3.64,3.21-3.64s2.86,1.61,2.86,3.22c0,.21,0,.38,0,.5l0,.28-.29.05h-4a1.66,1.66,0,0,0,1.78,1.52,3.61,3.61,0,0,0,1.59-.3l.34-.14L333,320l-.24.11A5.22,5.22,0,0,1,330.62,320.55Zm-.14-6.44c-1.54,0-2.58,1.21-2.58,3a2.56,2.56,0,0,0,2.72,2.8,5.14,5.14,0,0,0,1.69-.26l-.05-.2a4.59,4.59,0,0,1-1.49.21,2.29,2.29,0,0,1-2.43-2.45v-.31h4.37c0-.07,0-.14,0-.21C332.72,316.27,332.61,314.11,330.48,314.11Zm1.77,2.63h-3.93l0-.35a2.14,2.14,0,0,1,2-2.1,1.73,1.73,0,0,1,1.29.5,2.36,2.36,0,0,1,.58,1.64Zm-3.2-.63h2.57a1.62,1.62,0,0,0-.38-.88,1.15,1.15,0,0,0-.85-.32A1.44,1.44,0,0,0,329.05,316.11Z" transform="translate(-145.8 -238.39)"/><path class="cls-1" d="M340.76,315.61c0-.64,0-1.16-.05-1.67h1l.07,1h0a2.27,2.27,0,0,1,2-1.16c.86,0,2.18.51,2.18,2.63v3.68h-1.12v-3.56c0-1-.37-1.82-1.43-1.82a1.58,1.58,0,0,0-1.5,1.15,1.62,1.62,0,0,0-.08.52v3.71h-1.12Z" transform="translate(-145.8 -238.39)"/><path class="cls-1" d="M346.32,320.42h-1.74v-3.87c0-1-.38-1.51-1.12-1.51a1.27,1.27,0,0,0-1.2.93,1.11,1.11,0,0,0-.07.43v4h-1.75v-4.81c0-.69,0-1.18,0-1.65l0-.33H342l0,.53a2.63,2.63,0,0,1,1.8-.67c1.15,0,2.49.77,2.49,2.94Zm-1.12-.62h.5v-3.37c0-2.15-1.43-2.32-1.87-2.32a2,2,0,0,0-1.67.84,1.86,1.86,0,0,1,1.3-.53c1.11,0,1.74.78,1.74,2.13Zm-4.13,0h.5v-3.4a2,2,0,0,1,.09-.63,2.1,2.1,0,0,1,.24-.5h-.4l-.05-.29,0-.73H341c0,.39,0,.82,0,1.36Z" transform="translate(-145.8 -238.39)"/><path class="cls-1" d="M355.42,312.2a.7.7,0,0,1-1.39,0,.69.69,0,0,1,.7-.7A.67.67,0,0,1,355.42,312.2Zm-1.25,7.91v-6.17h1.12v6.17Z" transform="translate(-145.8 -238.39)"/><path class="cls-1" d="M355.61,320.42h-1.75v-6.79h1.75Zm-1.12-.62H355v-5.55h-.49Zm.22-6.59a1,1,0,0,1-1-1,1,1,0,0,1,1-1,1,1,0,0,1,.74,1.71A1,1,0,0,1,354.71,313.21Zm0-1.39a.38.38,0,0,0-.39.38.35.35,0,0,0,.37.38.43.43,0,0,0,.31-.11.37.37,0,0,0,.09-.26h0A.36.36,0,0,0,354.73,311.82Z" transform="translate(-145.8 -238.39)"/><path class="cls-1" d="M363.49,315.61c0-.64,0-1.16-.05-1.67h1l.06,1h0a2.26,2.26,0,0,1,2-1.16c.85,0,2.18.51,2.18,2.63v3.68h-1.12v-3.56c0-1-.37-1.82-1.43-1.82a1.6,1.6,0,0,0-1.51,1.15,1.64,1.64,0,0,0-.07.52v3.71h-1.13Z" transform="translate(-145.8 -238.39)"/><path class="cls-1" d="M369.06,320.42h-1.75v-3.87c0-1-.37-1.51-1.11-1.51A1.28,1.28,0,0,0,365,316a1.35,1.35,0,0,0-.06.43v4h-1.75v-4.81c0-.68,0-1.18-.05-1.65l0-.33h1.62l0,.53a2.65,2.65,0,0,1,1.81-.67c1.15,0,2.49.77,2.49,2.94Zm-1.12-.62h.49v-3.37c0-2.15-1.42-2.32-1.86-2.32a2,2,0,0,0-1.67.84,1.86,1.86,0,0,1,1.3-.53c1.1,0,1.74.78,1.74,2.13Zm-4.13,0h.49v-3.4a1.93,1.93,0,0,1,.1-.63,1.75,1.75,0,0,1,.23-.5h-.4l0-.29-.05-.73h-.36c0,.39,0,.82,0,1.36Z" transform="translate(-145.8 -238.39)"/><path class="cls-1" d="M382.23,313.94c0,.45-.05.94-.05,1.69v3.59a3.6,3.6,0,0,1-.88,2.82,3.29,3.29,0,0,1-2.25.74,4,4,0,0,1-2.05-.51l.28-.86a3.42,3.42,0,0,0,1.81.49c1.15,0,2-.6,2-2.16v-.69h0a2.17,2.17,0,0,1-2,1,2.76,2.76,0,0,1-2.63-3c0-2.1,1.37-3.28,2.78-3.28a2.06,2.06,0,0,1,1.93,1.07h0l.05-.93Zm-1.16,2.43a1.66,1.66,0,0,0-.07-.51,1.61,1.61,0,0,0-1.57-1.18c-1.07,0-1.83.9-1.83,2.33,0,1.21.61,2.22,1.82,2.22a1.65,1.65,0,0,0,1.56-1.15,2.08,2.08,0,0,0,.09-.6Z" transform="translate(-145.8 -238.39)"/><path class="cls-1" d="M379.05,323.09a4.38,4.38,0,0,1-2.23-.56l-.19-.14.48-1.46.33.22a3.25,3.25,0,0,0,1.65.43c1.09,0,1.64-.56,1.67-1.73a2.66,2.66,0,0,1-1.67.55,3.08,3.08,0,0,1-2.94-3.32,3.28,3.28,0,0,1,3.09-3.59,2.45,2.45,0,0,1,1.68.58l0-.44h1.61l0,.33c0,.47-.05,1-.05,1.67v3.59a3.82,3.82,0,0,1-1,3A3.61,3.61,0,0,1,379.05,323.09Zm-1.68-1a4.05,4.05,0,0,0,1.68.34,3,3,0,0,0,2-.65,3.29,3.29,0,0,0,.78-2.59v-3.59c0-.57,0-1,0-1.38h-.36l-.05.93H381a2.29,2.29,0,0,1,.28.59,1.84,1.84,0,0,1,.08.6v1.11a2.18,2.18,0,0,1-.11.7,2.1,2.1,0,0,1-.28.56h.38l0,.31v.69a2.18,2.18,0,0,1-2.3,2.47,4,4,0,0,1-1.63-.35Zm1.87-8c-1.22,0-2.46,1-2.46,3a2.44,2.44,0,0,0,2.31,2.69,2,2,0,0,0,1.52-.63,1.9,1.9,0,0,1-1.19.4c-1.28,0-2.14-1-2.14-2.53s.89-2.64,2.15-2.64a1.89,1.89,0,0,1,1.48.68l0,0A1.74,1.74,0,0,0,379.24,314.11Zm.19.88c-.92,0-1.52.79-1.52,2,0,.92.4,1.91,1.51,1.91a1.33,1.33,0,0,0,1.26-.94,1.51,1.51,0,0,0,.07-.5v-1.11a1.44,1.44,0,0,0,0-.41A1.31,1.31,0,0,0,379.43,315Z" transform="translate(-145.8 -238.39)"/><path class="cls-1" d="M391,317.23a2,2,0,0,0,2.12,2.14,4,4,0,0,0,1.7-.32l.2.81a5.22,5.22,0,0,1-2.06.38,2.86,2.86,0,0,1-3-3.11c0-1.87,1.09-3.33,2.89-3.33,2,0,2.55,1.77,2.55,2.91a3.12,3.12,0,0,1,0,.52Zm3.29-.8a1.6,1.6,0,0,0-1.56-1.83,1.87,1.87,0,0,0-1.72,1.83Z" transform="translate(-145.8 -238.39)"/><path class="cls-1" d="M393,320.55a3.17,3.17,0,0,1-3.34-3.42c0-2.15,1.31-3.64,3.2-3.64s2.87,1.61,2.87,3.22a3,3,0,0,1,0,.5l0,.28-.29.05h-4a1.67,1.67,0,0,0,1.79,1.52,3.59,3.59,0,0,0,1.58-.3l.34-.14.34,1.41-.24.11A5.18,5.18,0,0,1,393,320.55Zm-.14-6.44c-1.54,0-2.58,1.21-2.58,3a2.56,2.56,0,0,0,2.72,2.8,5.09,5.09,0,0,0,1.69-.26l0-.2a4.57,4.57,0,0,1-1.48.21,2.29,2.29,0,0,1-2.43-2.45v-.31h4.37a1.48,1.48,0,0,0,0-.21C395.06,316.27,395,314.11,392.82,314.11Zm1.78,2.63h-3.94l0-.35a2.15,2.15,0,0,1,2-2.1,1.77,1.77,0,0,1,1.3.5,2.34,2.34,0,0,1,.57,1.64Zm-3.21-.63H394a1.55,1.55,0,0,0-.38-.88,1.15,1.15,0,0,0-.85-.32A1.45,1.45,0,0,0,391.39,316.11Z" transform="translate(-145.8 -238.39)"/><path class="cls-1" d="M403.1,315.61c0-.64,0-1.16-.05-1.67h1l.07,1h0a2.27,2.27,0,0,1,2-1.16c.86,0,2.18.51,2.18,2.63v3.68h-1.12v-3.56c0-1-.37-1.82-1.43-1.82a1.58,1.58,0,0,0-1.5,1.15,1.62,1.62,0,0,0-.08.52v3.71H403.1Z" transform="translate(-145.8 -238.39)"/><path class="cls-1" d="M408.67,320.42h-1.75v-3.87c0-1-.38-1.51-1.12-1.51a1.28,1.28,0,0,0-1.2.93,1.35,1.35,0,0,0-.06.43v4h-1.75v-4.81c0-.69,0-1.18-.05-1.65l0-.33h1.63l0,.53a2.63,2.63,0,0,1,1.8-.67c1.15,0,2.5.77,2.5,2.94Zm-1.13-.62h.5v-3.37c0-2.15-1.43-2.32-1.87-2.32a2,2,0,0,0-1.66.84,1.86,1.86,0,0,1,1.29-.53c1.11,0,1.74.78,1.74,2.13Zm-4.13,0h.5v-3.4a2,2,0,0,1,.09-.63,2.1,2.1,0,0,1,.24-.5h-.4l0-.29-.05-.73h-.37c0,.39,0,.82,0,1.36Z" transform="translate(-145.8 -238.39)"/><path class="cls-1" d="M266.32,276.82a3.64,3.64,0,0,1-1.79.54,2.68,2.68,0,0,1-.85-.15,3.78,3.78,0,0,1-2-1.62,4.65,4.65,0,0,1-.75-2.54l.25-.24a7,7,0,0,0,4.24-1.69,47.77,47.77,0,0,0,4.33-4.74c.74-.05,3.36,2.22,4,2.47a11.08,11.08,0,0,1-1.18,2.75c-.1.13-.62.74-1.55,1.84a94.41,94.41,0,0,0-5.2,10.06c1.27-.29,3.17-.7,5.7-1.21q1.85-.35,5.59-1.11a37.62,37.62,0,0,1,6.64-8.08q5-4.74,9-6.19a10.47,10.47,0,0,1,1.38-.41,5.66,5.66,0,0,1,1.17-.12,2.54,2.54,0,0,1,1.67.51,2,2,0,0,1,.63,1.62,10.85,10.85,0,0,1-1.2,4.45,23.11,23.11,0,0,1-2.35,3.86,22.52,22.52,0,0,1-7.69,6.19,33.79,33.79,0,0,1-9.34,2.81,11.83,11.83,0,0,0-.6,3.58,9.32,9.32,0,0,0,1.35,4.93,12.21,12.21,0,0,0,3.9,3.87,8.34,8.34,0,0,0,4.59,1.5,6.83,6.83,0,0,0,4.82-2,11.09,11.09,0,0,0,3-5.25c.07-.29.22-.43.45-.43s.52.17.45.53a15.5,15.5,0,0,1-4.57,8.24,10.94,10.94,0,0,1-7.67,3.41,8.28,8.28,0,0,1-4.64-1.38,7.89,7.89,0,0,1-3.05-3.77,14.82,14.82,0,0,1-.95-5.49,21.07,21.07,0,0,1,1.4-7.54q-6,1-12,2a40.78,40.78,0,0,1-5.3,8.32q-3.88,4.78-7.64,6.19a6.86,6.86,0,0,1-2.45.43,4.32,4.32,0,0,1-2.84-.87,3.59,3.59,0,0,1-1.25-3,9.12,9.12,0,0,1,.1-1.16c.56-3.68,3.2-6.9,7.89-9.68a35.23,35.23,0,0,1,12.09-4.35c.1-.22.64-1.32,1.62-3.29s1.74-3.57,2.27-4.83C267.64,276,267.09,276.34,266.32,276.82ZM252.19,290.9q-6,2.75-6.94,6.91a3.72,3.72,0,0,0-.1,1,2.79,2.79,0,0,0,.92,2.2,3.44,3.44,0,0,0,2.32.79,5.44,5.44,0,0,0,2.1-.43q3.25-1.35,6.84-5.85a30.4,30.4,0,0,0,4.5-7.26A29.64,29.64,0,0,0,252.19,290.9Zm37.11-12.82q6.48-2.85,6.49-7.44a1.79,1.79,0,0,0-2-2,5.21,5.21,0,0,0-1.65.34q-3.34,1.06-7.64,5.13a32,32,0,0,0-5.69,6.77A43.94,43.94,0,0,0,289.3,278.08Z" transform="translate(-145.8 -238.39)"/><path class="cls-1" d="M282.7,304.38A8.48,8.48,0,0,1,278,303a8,8,0,0,1-3.1-3.84,15.09,15.09,0,0,1-1-5.54,21.4,21.4,0,0,1,1.32-7.36c-3.88.66-7.81,1.31-11.67,1.93a40.41,40.41,0,0,1-5.28,8.28c-2.6,3.19-5.19,5.29-7.7,6.23a6.93,6.93,0,0,1-2.5.45,4.46,4.46,0,0,1-2.93-.91,3.75,3.75,0,0,1-1.3-3.1,9.23,9.23,0,0,1,.1-1.18c.57-3.71,3.25-7,8-9.78A35.28,35.28,0,0,1,264,283.81c.16-.34.69-1.43,1.59-3.23s1.58-3.23,2.1-4.43l-1.27.79h0a3.9,3.9,0,0,1-1.86.55,3,3,0,0,1-.9-.15,4,4,0,0,1-2.07-1.68,4.85,4.85,0,0,1-.77-2.62V273l.33-.32h.06a6.93,6.93,0,0,0,4.16-1.66,24.94,24.94,0,0,0,3-3.23c.46-.55.9-1.07,1.29-1.5l0,0h.05c.47,0,1.44.64,2.74,1.59a10.71,10.71,0,0,0,1.32.89l.12,0,0,.12a10.75,10.75,0,0,1-1.2,2.8c-.1.13-.59.71-1.55,1.84a92.74,92.74,0,0,0-5.06,9.77c1.25-.29,3-.66,5.42-1.15,1.22-.22,3.08-.59,5.53-1.1a38.12,38.12,0,0,1,6.63-8.05c3.3-3.16,6.34-5.25,9-6.22a9.84,9.84,0,0,1,1.4-.42,6,6,0,0,1,1.2-.12,2.7,2.7,0,0,1,1.76.54,2.1,2.1,0,0,1,.68,1.73,11.09,11.09,0,0,1-1.21,4.51,23.07,23.07,0,0,1-2.37,3.89,22.81,22.81,0,0,1-7.74,6.23,34.08,34.08,0,0,1-9.29,2.8,11.58,11.58,0,0,0-.57,3.46,9.27,9.27,0,0,0,1.33,4.86,12.1,12.1,0,0,0,3.85,3.82,8.24,8.24,0,0,0,4.52,1.47,6.67,6.67,0,0,0,4.72-1.92,10.88,10.88,0,0,0,2.93-5.18c.11-.44.38-.54.59-.54a.63.63,0,0,1,.5.19.61.61,0,0,1,.09.51,15.68,15.68,0,0,1-4.61,8.32A11.15,11.15,0,0,1,282.7,304.38Zm-7-18.5-.09.23a21,21,0,0,0-1.38,7.49,14.8,14.8,0,0,0,.93,5.44,7.72,7.72,0,0,0,3,3.7,8.16,8.16,0,0,0,4.56,1.36,10.86,10.86,0,0,0,7.57-3.37,15.41,15.41,0,0,0,4.53-8.17.34.34,0,0,0,0-.28.37.37,0,0,0-.28-.08c-.11,0-.24,0-.31.32a11.28,11.28,0,0,1-3,5.32,7,7,0,0,1-4.92,2,8.51,8.51,0,0,1-4.67-1.52,12.29,12.29,0,0,1-3.94-3.92,9.49,9.49,0,0,1-1.37-5,11.74,11.74,0,0,1,.61-3.62l0-.09H277a34.41,34.41,0,0,0,9.3-2.79,22.69,22.69,0,0,0,7.64-6.15,23.19,23.19,0,0,0,2.33-3.85,10.66,10.66,0,0,0,1.19-4.38,1.85,1.85,0,0,0-.58-1.51,2.42,2.42,0,0,0-1.58-.48,5.38,5.38,0,0,0-1.14.12,10.08,10.08,0,0,0-1.36.4c-2.66,1-5.67,3-8.94,6.16a37.68,37.68,0,0,0-6.62,8.05l0,.05-.06,0c-2.48.51-4.36.88-5.6,1.11-2.57.52-4.43.92-5.68,1.21l-.29.06.12-.26a93.92,93.92,0,0,1,5.21-10.08c1-1.14,1.46-1.72,1.55-1.84a10.59,10.59,0,0,0,1.13-2.59,14.27,14.27,0,0,1-1.27-.87,9.49,9.49,0,0,0-2.5-1.54c-.37.41-.79.92-1.24,1.45a24.67,24.67,0,0,1-3.06,3.26,7.17,7.17,0,0,1-4.27,1.72l-.17.16a4.59,4.59,0,0,0,.73,2.41,3.71,3.71,0,0,0,1.92,1.56,2.63,2.63,0,0,0,.81.13,3.58,3.58,0,0,0,1.72-.51c.76-.48,1.32-.82,1.65-1l.37-.22-.17.39c-.53,1.26-1.3,2.89-2.27,4.85s-1.52,3.05-1.62,3.28l0,.07h-.07a35.23,35.23,0,0,0-12,4.34c-4.63,2.73-7.27,5.95-7.82,9.57a8.73,8.73,0,0,0-.1,1.14,3.48,3.48,0,0,0,1.2,2.88,4.16,4.16,0,0,0,2.75.84,6.81,6.81,0,0,0,2.4-.42c2.46-.93,5-3,7.58-6.15a40.21,40.21,0,0,0,5.28-8.29l0-.07h.07c4-.64,8-1.3,12-2ZM248.39,302a3.54,3.54,0,0,1-2.41-.84,2.86,2.86,0,0,1-1-2.3,4,4,0,0,1,.1-1.06c.64-2.8,3-5.15,7-7h0a29.88,29.88,0,0,1,9.68-2.63l.24,0-.09.22a30.85,30.85,0,0,1-4.52,7.29c-2.4,3-4.72,5-6.89,5.89A5.58,5.58,0,0,1,248.39,302Zm13.21-13.52a29.56,29.56,0,0,0-9.35,2.57h0c-3.94,1.81-6.25,4.11-6.86,6.82a3.52,3.52,0,0,0-.1,1,2.63,2.63,0,0,0,.87,2.09,3.3,3.3,0,0,0,2.23.76,5.37,5.37,0,0,0,2.05-.42c2.13-.89,4.41-2.85,6.78-5.81A30.24,30.24,0,0,0,261.6,288.45ZM278.53,281l.16-.25a32,32,0,0,1,5.71-6.8c2.87-2.71,5.46-4.45,7.7-5.16a5.15,5.15,0,0,1,1.69-.35,1.91,1.91,0,0,1,2.14,2.18c0,3.1-2.21,5.65-6.58,7.57h0A44.18,44.18,0,0,1,278.83,281Zm15.26-12.27a4.9,4.9,0,0,0-1.6.33c-2.2.7-4.76,2.41-7.59,5.09a32.68,32.68,0,0,0-5.51,6.48,43.08,43.08,0,0,0,10.15-2.7c4.25-1.87,6.41-4.33,6.41-7.31A1.65,1.65,0,0,0,293.79,268.75Z" transform="translate(-145.8 -238.39)"/><path class="cls-1" d="M313.84,293.65a51.48,51.48,0,0,1-5,4.55,9.24,9.24,0,0,1-5.39,2.22,5.63,5.63,0,0,1-1.05-.1,3.43,3.43,0,0,1-.95-.29,4.5,4.5,0,0,1-2.12-1.71,4.75,4.75,0,0,1-.67-2.54,9.3,9.3,0,0,1,2.92-6.32,11.41,11.41,0,0,1,7.11-3.65,1.72,1.72,0,0,1,1.48.43,2,2,0,0,1,.52,1.46,3.6,3.6,0,0,1-.42,1.64,4.54,4.54,0,0,1-1.33,1.5,10.24,10.24,0,0,1-4.09,1.8c-.54.12-1.87.33-4,.62a2.88,2.88,0,0,0,1.85,2.28,11.09,11.09,0,0,0,3.8.92h.6a7.18,7.18,0,0,0,3.14-.72,32.49,32.49,0,0,0,4.49-3.49Zm-9.06-1.88c1.36-.49,2.05-1.15,2.05-2a1.9,1.9,0,0,0-.25-.92,1.4,1.4,0,0,0-1.25-.77,3.81,3.81,0,0,0-2.57,1.4,7.05,7.05,0,0,0-1.83,3A11.66,11.66,0,0,0,304.78,291.77Z" transform="translate(-145.8 -238.39)"/><path class="cls-1" d="M303.43,300.56a5.76,5.76,0,0,1-1.07-.1,3.39,3.39,0,0,1-1-.3,4.6,4.6,0,0,1-2.18-1.77,4.87,4.87,0,0,1-.7-2.61,9.51,9.51,0,0,1,3-6.42,11.63,11.63,0,0,1,7.21-3.69,1.87,1.87,0,0,1,1.59.47,2.16,2.16,0,0,1,.56,1.56,3.78,3.78,0,0,1-.44,1.71A4.77,4.77,0,0,1,309,291a10.53,10.53,0,0,1-4.15,1.81c-.52.13-1.82.34-3.87.62a2.83,2.83,0,0,0,1.75,2,11.08,11.08,0,0,0,3.75.91h.59a7.14,7.14,0,0,0,3.08-.69,32.26,32.26,0,0,0,4.45-3.48l.76-.69-1.43,2.29a49.38,49.38,0,0,1-5,4.57A9.4,9.4,0,0,1,303.43,300.56ZM309,285.93l-.27,0a11.36,11.36,0,0,0-7,3.61,9.2,9.2,0,0,0-2.88,6.22,4.63,4.63,0,0,0,.65,2.46,4.3,4.3,0,0,0,2.06,1.66,3.56,3.56,0,0,0,.92.29,6.12,6.12,0,0,0,1,.09,9.15,9.15,0,0,0,5.31-2.2,49.36,49.36,0,0,0,5-4.52l.35-.57a26,26,0,0,1-3.8,2.88,7.42,7.42,0,0,1-3.2.73h-.6a11.14,11.14,0,0,1-3.86-.94,3,3,0,0,1-1.93-2.38v-.14l.13,0c2.12-.28,3.46-.49,4-.62a10.3,10.3,0,0,0,4-1.77,4.31,4.31,0,0,0,1.28-1.45,3.48,3.48,0,0,0,.41-1.58,1.87,1.87,0,0,0-.48-1.36A1.47,1.47,0,0,0,309,285.93Zm-8,6.7h-.18l.05-.18a7.23,7.23,0,0,1,1.85-3.06,4,4,0,0,1,2.68-1.44,1.53,1.53,0,0,1,1.37.84,2,2,0,0,1,.27,1c0,.9-.72,1.62-2.15,2.12h0A11.61,11.61,0,0,1,300.93,292.63Zm4.4-4.4a3.7,3.7,0,0,0-2.47,1.36,7.08,7.08,0,0,0-1.74,2.76,11.8,11.8,0,0,0,3.61-.72h0c1.3-.46,1.95-1.08,1.95-1.85a1.65,1.65,0,0,0-.23-.85A1.23,1.23,0,0,0,305.33,288.23Z" transform="translate(-145.8 -238.39)"/><path class="cls-1" d="M329.42,290.58l1,1.19a1.51,1.51,0,0,1,.3,1,6.17,6.17,0,0,1-.1,1c-.17.93-.25,1.47-.25,1.59,0,.62.25.92.75.92a5.69,5.69,0,0,0,2.78-1.12c.38-.26,5.42-4.5,5.42-4.5a2.63,2.63,0,0,0,.44.21,92.22,92.22,0,0,1-7.58,6.62,15.5,15.5,0,0,1-4.92,2.47,2.83,2.83,0,0,1-.6.05c-1.06,0-1.64-.33-1.74-1a3.13,3.13,0,0,1,.59-2,12.48,12.48,0,0,0,1.71-3.43,1.84,1.84,0,0,0-1.05-1.6,57.41,57.41,0,0,1-4.19,4.45,12,12,0,0,1-5.55,3.24,6.65,6.65,0,0,1-.8.09,2.54,2.54,0,0,1-2.09-.79,3.28,3.28,0,0,1-.65-2.18,6.49,6.49,0,0,1,.55-2.52,6.83,6.83,0,0,1,1.45-2.23,12.38,12.38,0,0,1,4.17-2.82,12.08,12.08,0,0,1,4.82-1.06h1.49a7.11,7.11,0,0,1,1.2-1.45,1.85,1.85,0,0,1,1.25-.53,1.53,1.53,0,0,1,.77.26,1.07,1.07,0,0,1,.43,1,3.26,3.26,0,0,1-.3,1.21,6.41,6.41,0,0,1-.5,1A4,4,0,0,1,329.42,290.58Zm-7.86-1.4a4.45,4.45,0,0,0-2.5,2,5.18,5.18,0,0,0-.4,1,3.93,3.93,0,0,0-.15,1.06,2.25,2.25,0,0,0,.48,1.5,1.76,1.76,0,0,0,1.47.58,5.13,5.13,0,0,0,1.25-.19,5.56,5.56,0,0,0,2.05-1.45,20.17,20.17,0,0,0,1.89-2.18,2.32,2.32,0,0,1-.7-1.64v-.53a5.72,5.72,0,0,1,.25-.78A10.86,10.86,0,0,0,321.56,289.18Z" transform="translate(-145.8 -238.39)"/><path class="cls-1" d="M326.69,300.13c-1.13,0-1.77-.37-1.88-1.09a3.21,3.21,0,0,1,.61-2.12c1.4-2.34,1.69-3.12,1.69-3.37a1.66,1.66,0,0,0-.88-1.41,56.34,56.34,0,0,1-4.13,4.37,12.22,12.22,0,0,1-5.61,3.28,8,8,0,0,1-.83.1,2.7,2.7,0,0,1-2.2-.85,3.49,3.49,0,0,1-.68-2.27,6.56,6.56,0,0,1,.56-2.57,7,7,0,0,1,1.48-2.28,13.25,13.25,0,0,1,9.09-3.92h1.42a7,7,0,0,1,1.18-1.42,2,2,0,0,1,1.34-.56,1.64,1.64,0,0,1,.85.28,1.21,1.21,0,0,1,.49,1.11,3.41,3.41,0,0,1-.31,1.27,8.15,8.15,0,0,1-.43.91,4,4,0,0,1,1.08.9h0l1,1.18a1.72,1.72,0,0,1,.33,1.06,6.41,6.41,0,0,1-.1,1,15.54,15.54,0,0,0-.25,1.57c0,.69.32.78.61.78a5.63,5.63,0,0,0,2.7-1.09c.37-.26,5.36-4.45,5.41-4.49l.08-.07.08,0a2.51,2.51,0,0,0,.39.19l.27,0-.19.2a90.69,90.69,0,0,1-7.6,6.64,15.8,15.8,0,0,1-5,2.49A3.17,3.17,0,0,1,326.69,300.13Zm-.52-8.35.11.06a2,2,0,0,1,1.11,1.71c0,.27-.18.92-1.73,3.51a3,3,0,0,0-.57,1.93c.09.58.61.85,1.6.85a2.78,2.78,0,0,0,.57,0,15.55,15.55,0,0,0,4.87-2.45,87.73,87.73,0,0,0,7.4-6.45l-.16-.08c-.65.54-5,4.19-5.36,4.44a5.87,5.87,0,0,1-2.86,1.14c-.41,0-.89-.18-.89-1.06a13.57,13.57,0,0,1,.25-1.62,5.73,5.73,0,0,0,.1-1,1.46,1.46,0,0,0-.27-.88l-1-1.18h0a4.09,4.09,0,0,0-1.14-.91l-.14-.07.09-.13a6.39,6.39,0,0,0,.49-1,3.2,3.2,0,0,0,.29-1.16,1,1,0,0,0-.36-.87,1.39,1.39,0,0,0-.7-.24,1.77,1.77,0,0,0-1.15.49,7.19,7.19,0,0,0-1.18,1.43l0,.06h-1.57a12.08,12.08,0,0,0-4.77,1.05,12.34,12.34,0,0,0-4.12,2.79,6.68,6.68,0,0,0-1.42,2.19,6.33,6.33,0,0,0-.54,2.46,3.21,3.21,0,0,0,.62,2.09,2.43,2.43,0,0,0,2,.74,6.46,6.46,0,0,0,.78-.09,11.88,11.88,0,0,0,5.47-3.21,56.17,56.17,0,0,0,4.19-4.43Zm-5.71,3.71a1.92,1.92,0,0,1-1.58-.64,2.41,2.41,0,0,1-.51-1.59,3.85,3.85,0,0,1,.16-1.1,6.21,6.21,0,0,1,.4-1,4.65,4.65,0,0,1,2.58-2.07h0a10.91,10.91,0,0,1,3.69-.62h.21l-.07.19a4.11,4.11,0,0,0-.24.73v.53a2.14,2.14,0,0,0,.66,1.55l.08.08-.07.1a20.34,20.34,0,0,1-1.92,2.19,5.56,5.56,0,0,1-2.11,1.49A5.36,5.36,0,0,1,320.46,295.49Zm1.15-6.18a4.39,4.39,0,0,0-2.43,1.95,5.7,5.7,0,0,0-.38,1,3.6,3.6,0,0,0-.15,1,2.11,2.11,0,0,0,.45,1.41,1.62,1.62,0,0,0,1.36.53,4.79,4.79,0,0,0,1.21-.19,5.44,5.44,0,0,0,2-1.41,20.09,20.09,0,0,0,1.81-2.07,2.39,2.39,0,0,1-.66-1.65v-.53a2.2,2.2,0,0,1,.19-.63,10.72,10.72,0,0,0-3.39.59Z" transform="translate(-145.8 -238.39)"/><path class="cls-1" d="M348.35,296.7q-4.17,3.87-6.74,3.87a2.94,2.94,0,0,1-1.74-.56,3.93,3.93,0,0,1-1.28-1.76c-.2-.49.09-1.1.87-1.84q2.82-2.61,2.82-3.29a2,2,0,0,0-1-1.52,3.06,3.06,0,0,0-1.5-.75c-.37,0-1.2-.86-1.2-1.12,0-.65.58-1.5,1.75-2.57a11.51,11.51,0,0,1,2.74-2,1.31,1.31,0,0,1,.83.26.74.74,0,0,1,.32.51q-1.05,1-1.05,1.5c0,.39.37.75,1.1,1.07,1.53.68,2.3,1.26,2.3,1.74s-.62,1.26-1.85,2.32-1.85,1.91-1.85,2.52a1.87,1.87,0,0,0,.86,1.36,1.34,1.34,0,0,0,.81.19,8.69,8.69,0,0,0,3.49-1.16c1.18-.61,4.54-3.41,5.59-4.15l-.14.29C353.05,292.05,349.93,295.12,348.35,296.7Z" transform="translate(-145.8 -238.39)"/><path class="cls-1" d="M341.61,300.71a3.1,3.1,0,0,1-1.82-.58,4.11,4.11,0,0,1-1.33-1.83c-.23-.55.07-1.2.9-2,2.42-2.24,2.78-3,2.78-3.19a1.91,1.91,0,0,0-.94-1.41,2.93,2.93,0,0,0-1.41-.72,2.15,2.15,0,0,1-1.34-1.26c0-.69.58-1.57,1.79-2.67a11.58,11.58,0,0,1,2.78-2h.06a1.47,1.47,0,0,1,.92.29.84.84,0,0,1,.37.62V286l0,0c-.83.81-1,1.21-1,1.4s.35.64,1,.94c1.62.72,2.38,1.31,2.38,1.87s-.62,1.33-1.9,2.43-1.8,1.84-1.8,2.41a1.72,1.72,0,0,0,.81,1.24,1.19,1.19,0,0,0,.72.17,8.57,8.57,0,0,0,3.42-1.15,38.88,38.88,0,0,0,3.92-2.87c.7-.54,1.31-1,1.66-1.26l.43-.31-.39.82c-.43.4-3.53,3.45-5.14,5.06h0C345.65,299.39,343.35,300.71,341.61,300.71Zm1.51-15.39a11.22,11.22,0,0,0-2.69,1.95c-1.13,1-1.7,1.86-1.7,2.46,0,.18.77,1,1.06,1a3.13,3.13,0,0,1,1.58.77,2.18,2.18,0,0,1,1.06,1.64c0,.32-.3,1-2.87,3.39-.73.69-1,1.26-.84,1.68a3.81,3.81,0,0,0,1.23,1.7,2.76,2.76,0,0,0,1.66.53c1.66,0,3.9-1.28,6.65-3.82,1.19-1.2,3.22-3.2,4.36-4.31-.18.13-.36.28-.55.43a39.7,39.7,0,0,1-4,2.89,8.63,8.63,0,0,1-3.55,1.18,1.42,1.42,0,0,1-.89-.22,2,2,0,0,1-.92-1.47c0-.66.62-1.52,1.9-2.62,1.48-1.29,1.8-1.92,1.8-2.22s-.29-.76-2.22-1.61c-.79-.35-1.18-.74-1.18-1.2s.33-.85,1-1.55a.73.73,0,0,0-.26-.35A1.09,1.09,0,0,0,343.12,285.32Z" transform="translate(-145.8 -238.39)"/><path class="cls-1" d="M360.94,289a16.24,16.24,0,0,1-4.12.48,13.81,13.81,0,0,0-.9,2,5,5,0,0,0-.35,1.74,2.18,2.18,0,0,0,.55,1.59,4.08,4.08,0,0,0,3,1.21,8.07,8.07,0,0,0,2.8-.55,15.92,15.92,0,0,0,2.75-1.33l.1.09a38.25,38.25,0,0,1-3.15,2.9c-2.73,2.23-4.83,3.24-6.29,3.05a4,4,0,0,1-2.6-1.12,3.59,3.59,0,0,1-.75-2.38,9.12,9.12,0,0,1,.6-2.87,34.07,34.07,0,0,1,1.95-4.32,6.14,6.14,0,0,1-2.42-.31,1,1,0,0,1-.63-.85s.05-.29.15-.77a1.34,1.34,0,0,1,.63-.8,2.4,2.4,0,0,1,1.07-.21l2.5.29c1.16-2.33,2-3.86,2.44-4.6q1.86-2.81,3.7-3.24a3.88,3.88,0,0,1,.75-.05,2.32,2.32,0,0,1,.77.15.6.6,0,0,1,.43.63,1.85,1.85,0,0,1-.15.59,10,10,0,0,1-1.72,2.69q-1.38,1.68-3.73,4.41h1.5l2.25-.1c.77,0,1.51,0,2.25,0A9.41,9.41,0,0,1,360.94,289Z" transform="translate(-145.8 -238.39)"/><path class="cls-1" d="M355.74,300.3a2.56,2.56,0,0,1-.39,0,4.12,4.12,0,0,1-2.69-1.17,3.73,3.73,0,0,1-.78-2.47,9.11,9.11,0,0,1,.61-2.92,31.76,31.76,0,0,1,1.85-4.12,6,6,0,0,1-2.26-.33,1.09,1.09,0,0,1-.7-1,8.11,8.11,0,0,1,.15-.8,1.48,1.48,0,0,1,.7-.89,2.44,2.44,0,0,1,1.14-.24l2.42.28c1.13-2.26,1.94-3.78,2.4-4.51,1.25-1.9,2.53-3,3.79-3.31a4.27,4.27,0,0,1,.78-.05,2.37,2.37,0,0,1,.82.16.73.73,0,0,1,.52.76,1.89,1.89,0,0,1-.16.64,9.83,9.83,0,0,1-1.75,2.73c-.86,1.07-2.05,2.47-3.52,4.17h1.43l2-.08c.78,0,1.53-.05,2.26-.05h.41l-.32.25A9.66,9.66,0,0,1,361,289.1a16.27,16.27,0,0,1-4.07.49,14.15,14.15,0,0,0-.85,1.89,4.92,4.92,0,0,0-.34,1.69,2.1,2.1,0,0,0,.51,1.5,4,4,0,0,0,2.94,1.16,7.81,7.81,0,0,0,2.75-.55,14.58,14.58,0,0,0,2.72-1.31l.1-.06.28.27-.1.1a38.5,38.5,0,0,1-3.16,2.91C359.19,299.28,357.22,300.3,355.74,300.3Zm-2.39-13.66a2.24,2.24,0,0,0-1,.2,1.19,1.19,0,0,0-.55.72c-.13.6-.14.71-.15.73a.81.81,0,0,0,.55.71,6.07,6.07,0,0,0,2.36.3h.23l-.11.21a33.41,33.41,0,0,0-1.93,4.29,8.92,8.92,0,0,0-.6,2.83,3.41,3.41,0,0,0,.72,2.28,3.82,3.82,0,0,0,2.51,1.08c1.42.19,3.5-.83,6.18-3,1-.81,1.89-1.64,2.74-2.49a15.64,15.64,0,0,1-2.3,1.06,8.36,8.36,0,0,1-2.85.56,4.25,4.25,0,0,1-3.14-1.25,2.32,2.32,0,0,1-.59-1.69,5.53,5.53,0,0,1,.35-1.79,15.2,15.2,0,0,1,.91-2l0-.08h.09a15.92,15.92,0,0,0,4.08-.48h0a9.12,9.12,0,0,0,3-1.46c-.59,0-1.2,0-1.81.05l-2.25.1h-1.81l.2-.24c1.56-1.81,2.81-3.29,3.72-4.39a9.56,9.56,0,0,0,1.69-2.66,1.73,1.73,0,0,0,.15-.54.48.48,0,0,0-.33-.5,2.3,2.3,0,0,0-.73-.13,3.83,3.83,0,0,0-.72,0c-1.19.28-2.4,1.35-3.61,3.18-.46.73-1.28,2.27-2.44,4.58l0,.09Z" transform="translate(-145.8 -238.39)"/><path class="cls-1" d="M381,268.7a81.65,81.65,0,0,0,11.78.63h3.35l1.15-2,1.6-.29-1.35,2.32,5-.1c1.68,0,3.37-.05,5.07-.05a16.64,16.64,0,0,0-.7,1.6,5.09,5.09,0,0,1-1.53,2.25,9.3,9.3,0,0,1-3.59.77c-1.88.18-4.21.27-7,.27l-3.74,6.57a29.23,29.23,0,0,0,7.54,2,59.92,59.92,0,0,0,7.74.43,10.9,10.9,0,0,1-4.27,2.61,16.48,16.48,0,0,1-5.17.78,23.59,23.59,0,0,1-4.22-.41,31.75,31.75,0,0,1-4.12-1,14.39,14.39,0,0,1,.15,2.12,30.93,30.93,0,0,1-2.35,11,29.74,29.74,0,0,1-5,9c-.67.74-1.23,1.11-1.7,1.11s-.91-.35-1.13-1.06a10,10,0,0,1-.32-2.76,10.81,10.81,0,0,1,.65-4.16,52.08,52.08,0,0,1,3.6-6.47q4.39-7,4.39-8c0-.81-.51-1.44-1.52-1.89s-1.53-.87-1.53-1.25a4.09,4.09,0,0,1,.8-2.64,2.19,2.19,0,0,1,1.6-1,6.68,6.68,0,0,1,1.88.53c.91.36,1.54.58,1.87.68l3.4-6.16-4.21.24c-.7.05-1.6.07-2.7.07a20.28,20.28,0,0,1-8.17-1.31,8,8,0,0,1-4.65-6.39A33.41,33.41,0,0,0,381,268.7Z" transform="translate(-145.8 -238.39)"/><path class="cls-1" d="M379.69,308.44c-.6,0-1-.39-1.26-1.16a9.84,9.84,0,0,1-.33-2.8,10.87,10.87,0,0,1,.66-4.21,52.36,52.36,0,0,1,3.61-6.5c3.61-5.73,4.37-7.49,4.37-7.95,0-.75-.47-1.33-1.44-1.76s-1.61-.93-1.61-1.38a4.23,4.23,0,0,1,.83-2.73,2.32,2.32,0,0,1,1.71-1,6.33,6.33,0,0,1,1.93.54c.82.32,1.41.53,1.75.64l3.22-5.84-3.95.24c-.7,0-1.61.06-2.71.06a20.58,20.58,0,0,1-8.23-1.32,8.13,8.13,0,0,1-4.73-6.5l0-.25.23.1a33.85,33.85,0,0,0,7.31,2h0a81.42,81.42,0,0,0,11.76.63H396l1.14-2,2-.36-1.37,2.37,4.76-.09c1.71,0,3.41,0,5.08,0h.25l-.13.22a15.28,15.28,0,0,0-.69,1.57,5.2,5.2,0,0,1-1.58,2.32,9.61,9.61,0,0,1-3.66.79c-1.85.18-4.17.27-6.9.27l-3.62,6.37a29.85,29.85,0,0,0,7.36,1.91,61.66,61.66,0,0,0,7.72.43h.35l-.25.24a11.14,11.14,0,0,1-4.33,2.65,19.23,19.23,0,0,1-9.46.37,32.07,32.07,0,0,1-3.92-1,15,15,0,0,1,.12,1.92,31.21,31.21,0,0,1-2.36,11.08,29.86,29.86,0,0,1-5,9.09C380.79,308.07,380.2,308.44,379.69,308.44Zm6.54-29.25a2.09,2.09,0,0,0-1.49.94,4,4,0,0,0-.76,2.55c0,.22.25.59,1.43,1.12a2.25,2.25,0,0,1,1.61,2c0,.74-1.44,3.39-4.41,8.1a51.77,51.77,0,0,0-3.59,6.46,10.72,10.72,0,0,0-.64,4.1,9.64,9.64,0,0,0,.32,2.72c.2.65.52,1,1,1s1-.36,1.59-1.06a29.73,29.73,0,0,0,5-9,31.09,31.09,0,0,0,2.34-11,14.12,14.12,0,0,0-.15-2.1l0-.23.21.07a30.66,30.66,0,0,0,4.1,1,18.91,18.91,0,0,0,9.32-.36,10.77,10.77,0,0,0,4-2.34,58.71,58.71,0,0,1-7.4-.43,29.65,29.65,0,0,1-7.58-2l-.15-.06,3.87-6.78h.08c2.75,0,5.09-.09,7-.27a9.58,9.58,0,0,0,3.53-.75,5,5,0,0,0,1.47-2.19c.27-.66.46-1.13.59-1.39-1.58,0-3.21,0-4.83,0l-5.27.11,1.32-2.28-1.23.23-1.16,2h-3.43a82,82,0,0,1-11.8-.63,33.92,33.92,0,0,1-7.14-1.91,7.79,7.79,0,0,0,4.53,6,20.19,20.19,0,0,0,8.11,1.3c1.09,0,2,0,2.69-.07l4.22-.24h.24l-3.57,6.47-.11,0c-.34-.1-.95-.32-1.88-.69A6.72,6.72,0,0,0,386.23,279.19Z" transform="translate(-145.8 -238.39)"/><path class="cls-1" d="M419.34,294c-2.09,2-3.53,3.29-4.29,3.87q-2.9,2.22-4.95,2.22a3.86,3.86,0,0,1-2-.55,4.53,4.53,0,0,1-1.42-1.26,3.39,3.39,0,0,1-.5-2,10.79,10.79,0,0,1,.5-2.95A64.72,64.72,0,0,1,412.18,281q4.06-7.39,5.51-7.4c.3,0,.53.23.68.68a5.63,5.63,0,0,1,.22,1.74,11.82,11.82,0,0,1-.6,4,15.83,15.83,0,0,1-3.49,5.32q-5.75,6-6.14,6.91a1.38,1.38,0,0,0-.1.43,2,2,0,0,0,.94,1.46,9.52,9.52,0,0,0,1.95,1,9,9,0,0,0,3.5.87,4.3,4.3,0,0,0,2.35-.7c.73-.47,1.43-.94,2.09-1.43Z" transform="translate(-145.8 -238.39)"/><path class="cls-1" d="M410.1,300.22a4,4,0,0,1-2.09-.57,4.84,4.84,0,0,1-1.47-1.3,3.57,3.57,0,0,1-.52-2.09,11.44,11.44,0,0,1,.5-3,65.72,65.72,0,0,1,5.53-12.36c2.77-5,4.61-7.47,5.64-7.47q.56,0,.81.78a5.57,5.57,0,0,1,.23,1.78,12,12,0,0,1-.6,4.06,16,16,0,0,1-3.53,5.37c-3.8,4-5.86,6.32-6.12,6.88a1.18,1.18,0,0,0-.08.37,1.83,1.83,0,0,0,.89,1.34,8.7,8.7,0,0,0,1.92,1,8.87,8.87,0,0,0,3.44.86,4.18,4.18,0,0,0,2.27-.68c.71-.46,1.42-.93,2.09-1.42l.06,0,.53.21-.16.15c-2.09,2-3.54,3.3-4.31,3.88C413.19,299.47,411.49,300.22,410.1,300.22Zm7.59-26.49c-.62,0-2.06,1.27-5.39,7.32a65.18,65.18,0,0,0-5.51,12.3,11.21,11.21,0,0,0-.49,2.91,3.35,3.35,0,0,0,.47,1.93,4.62,4.62,0,0,0,1.38,1.22,3.78,3.78,0,0,0,2,.53c1.33,0,3-.74,4.86-2.19.72-.55,2.06-1.75,4-3.57-.61.43-1.23.85-1.87,1.26a4.44,4.44,0,0,1-2.42.72,9,9,0,0,1-3.55-.88,9.27,9.27,0,0,1-2-1,2.1,2.1,0,0,1-1-1.57,1.72,1.72,0,0,1,.11-.48c.28-.61,2.3-2.88,6.18-7a15.85,15.85,0,0,0,3.46-5.27,11.78,11.78,0,0,0,.59-4,5.29,5.29,0,0,0-.22-1.69C418,273.73,417.78,273.73,417.69,273.73Z" transform="translate(-145.8 -238.39)"/><path class="cls-1" d="M435.77,290.51a9.81,9.81,0,0,1-2.44,1.06,9.05,9.05,0,0,1-3.42,6,9.76,9.76,0,0,1-6.37,2.61,5.42,5.42,0,0,1-4-1.6,4.06,4.06,0,0,1-1.15-2.8c0-1.81.92-3.59,2.75-5.37a15.14,15.14,0,0,1,6.94-3.72c.17-.07.27-.05.3.05s-.08.26-.35.38a8.18,8.18,0,0,0-3.52,2,4.44,4.44,0,0,0-1.62,3.22,3.05,3.05,0,0,0,.95,2.22,4.6,4.6,0,0,0,3.54,1.45,6,6,0,0,0,3.65-1.18,4.37,4.37,0,0,0,1.8-3.17,7.34,7.34,0,0,0-.95.1,9.06,9.06,0,0,1-1,.09,4.28,4.28,0,0,1-1.75-.31,1.07,1.07,0,0,1-.7-1,8.76,8.76,0,0,1,.5-2.6c.33-1,.72-1.43,1.15-1.23l3.2,2.23a5.84,5.84,0,0,0,1.77.56,12.94,12.94,0,0,0,2.07.17Q436.28,290.22,435.77,290.51Z" transform="translate(-145.8 -238.39)"/><path class="cls-1" d="M423.54,300.32a5.59,5.59,0,0,1-4.1-1.64,4.21,4.21,0,0,1-1.19-2.9c0-1.84.94-3.68,2.79-5.47a15.3,15.3,0,0,1,7-3.76.43.43,0,0,1,.33,0,.32.32,0,0,1,.14.16c.05.22-.09.4-.43.56a8.07,8.07,0,0,0-3.48,2,4.31,4.31,0,0,0-1.58,3.12,3,3,0,0,0,.91,2.12,4.49,4.49,0,0,0,3.44,1.41,5.82,5.82,0,0,0,3.56-1.16,4.16,4.16,0,0,0,1.73-2.9c-.18,0-.44,0-.77.09a9.12,9.12,0,0,1-1,.09,4.55,4.55,0,0,1-1.81-.32,1.21,1.21,0,0,1-.78-1.17,8.67,8.67,0,0,1,.51-2.64c.24-.75.52-1.19.84-1.33a.58.58,0,0,1,.5,0l3.22,2.24a5.83,5.83,0,0,0,1.71.54,12.7,12.7,0,0,0,2.05.17h.46l-.38.26c-.56.38-1,.68-1.35.87h0a10.69,10.69,0,0,1-2.38,1.06,9.24,9.24,0,0,1-3.46,6A10,10,0,0,1,423.54,300.32Zm4.7-13.53-.11,0a15.15,15.15,0,0,0-6.89,3.69c-1.79,1.74-2.7,3.51-2.7,5.27a3.93,3.93,0,0,0,1.11,2.71,5.34,5.34,0,0,0,3.89,1.55,9.65,9.65,0,0,0,6.27-2.58,8.91,8.91,0,0,0,3.38-5.9v-.1l.09,0a9.5,9.5,0,0,0,2.41-1c.26-.15.58-.36,1-.62a12.83,12.83,0,0,1-1.64-.16,6.39,6.39,0,0,1-1.82-.57L430,286.79a.31.31,0,0,0-.25,0c-.16.07-.41.33-.68,1.16a8.42,8.42,0,0,0-.5,2.55,1,1,0,0,0,.62.91,4.12,4.12,0,0,0,1.69.3,8.81,8.81,0,0,0,1-.09,7.71,7.71,0,0,1,1-.1H433v.15a4.47,4.47,0,0,1-1.86,3.27,6.08,6.08,0,0,1-3.73,1.21,4.79,4.79,0,0,1-3.65-1.49,3.25,3.25,0,0,1-1-2.32,4.58,4.58,0,0,1,1.66-3.32,8.12,8.12,0,0,1,3.59-2C428.18,286.9,428.24,286.82,428.24,286.79Z" transform="translate(-145.8 -238.39)"/><path class="cls-1" d="M459.57,290.53c-.45.05-1.21.08-2.27.08a20.37,20.37,0,0,1-1.05,6.67q-1.39,4.07-4.25,4.06a6.62,6.62,0,0,1-1.24-.14c-.8-.23-1.44-1.46-1.9-3.7s-.93-3.5-1.4-3.75a1,1,0,0,0-.65-.19c-.6,0-1.76.59-3.47,1.78s-3,1.79-3.82,1.79a2.41,2.41,0,0,1-.85-.14,1.85,1.85,0,0,1-.9-1,4.83,4.83,0,0,1-.25-1.66,7.65,7.65,0,0,1,.53-2.8,12.26,12.26,0,0,1,3.22-3.76,32.58,32.58,0,0,1,4.14-3.18.77.77,0,0,1,.45-.19.66.66,0,0,1,.45.29c.2.19-.65,1.47-2.55,3.82a5.59,5.59,0,0,0-1.49,3,1.59,1.59,0,0,0,.35,1.06,1.31,1.31,0,0,0,1.09.44,9.41,9.41,0,0,0,2.25-.58,4.81,4.81,0,0,1,2.2-.44,34.49,34.49,0,0,1,3,3.14,2.91,2.91,0,0,0,2.14,1.16,2.65,2.65,0,0,0,.85-.14,2.71,2.71,0,0,0,2.2-2.13,10.89,10.89,0,0,0,.4-3.33,10,10,0,0,1-3.15-.44c-1.3-.45-1.94-1.16-1.94-2.13a5.1,5.1,0,0,1,1.09-1.64q.9-1,1.5-1l.05.15c1.07.93,2.15,1.87,3.25,2.8a9.34,9.34,0,0,0,3.59,1.6A4.15,4.15,0,0,1,459.57,290.53Z" transform="translate(-145.8 -238.39)"/><path class="cls-1" d="M452,301.48a6.21,6.21,0,0,1-1.27-.15c-.87-.24-1.53-1.49-2-3.81-.57-2.72-1-3.49-1.33-3.65a.93.93,0,0,0-.58-.17c-.57,0-1.71.59-3.39,1.76s-3,1.82-3.9,1.82a2.66,2.66,0,0,1-.9-.16,2,2,0,0,1-1-1.12,5.13,5.13,0,0,1-.26-1.71,7.92,7.92,0,0,1,.53-2.85,12.44,12.44,0,0,1,3.26-3.82,33.06,33.06,0,0,1,4.17-3.19.68.68,0,0,1,1.08.12c.15.15.38.38-2.55,4a5.48,5.48,0,0,0-1.46,2.87,1.46,1.46,0,0,0,.32,1,1.16,1.16,0,0,0,1,.38,9.17,9.17,0,0,0,2.21-.57,4.75,4.75,0,0,1,2.28-.43c.09,0,.29.11,3.06,3.18a2.84,2.84,0,0,0,2,1.11,2.47,2.47,0,0,0,.81-.14,2.55,2.55,0,0,0,2.1-2,10.4,10.4,0,0,0,.4-3.15,9.71,9.71,0,0,1-3.05-.45c-1.36-.47-2.05-1.23-2.05-2.26v0a5.31,5.31,0,0,1,1.13-1.7c.63-.71,1.16-1.06,1.6-1.06h.1l.07.21c1,.9,2.11,1.83,3.22,2.77a9.24,9.24,0,0,0,3.53,1.57l.36.08-.31.18a4.34,4.34,0,0,1-1.63.62h0a21.13,21.13,0,0,1-2.15.08,20.29,20.29,0,0,1-1.06,6.57C455.43,300.08,454,301.48,452,301.48Zm-5.19-8.07a1.25,1.25,0,0,1,.74.22c.3.17.81.76,1.45,3.84.45,2.17,1.05,3.38,1.79,3.59a6.33,6.33,0,0,0,1.21.14c1.83,0,3.21-1.34,4.12-4a20.29,20.29,0,0,0,1-6.62v-.15h.14c1.05,0,1.81,0,2.26-.07h0a3.48,3.48,0,0,0,1.2-.41,9.68,9.68,0,0,1-3.3-1.53c-1.12-1-2.22-1.91-3.25-2.82l0,0,0-.08a2.72,2.72,0,0,0-1.29,1,5.32,5.32,0,0,0-1.06,1.57c0,.9.61,1.55,1.85,2a10,10,0,0,0,3.1.42h.14v.15a11.25,11.25,0,0,1-.41,3.38,2.85,2.85,0,0,1-2.31,2.22,2.7,2.7,0,0,1-.87.15,3.1,3.1,0,0,1-2.25-1.21A30.69,30.69,0,0,0,448.1,292a4.67,4.67,0,0,0-2.09.44,8.94,8.94,0,0,1-2.3.59,1.48,1.48,0,0,1-1.21-.49,1.79,1.79,0,0,1-.38-1.15,5.64,5.64,0,0,1,1.53-3.05c2.37-2.94,2.56-3.53,2.55-3.65-.18-.2-.29-.23-.34-.23a.62.62,0,0,0-.36.16,32.81,32.81,0,0,0-4.14,3.18,12.24,12.24,0,0,0-3.18,3.7,7.63,7.63,0,0,0-.52,2.75,4.79,4.79,0,0,0,.24,1.61,1.66,1.66,0,0,0,.84,1,2.16,2.16,0,0,0,.78.13c.8,0,2.06-.59,3.74-1.76S446.18,293.41,446.81,293.41Zm-.6-8.67h0Z" transform="translate(-145.8 -238.39)"/><path class="cls-1" d="M338.88,291.58l-.29-.48s.32-.21.31-.48a.4.4,0,0,0-.17-.36l0,0,.38-.42a1,1,0,0,1,.4.82A1.2,1.2,0,0,1,338.88,291.58Z" transform="translate(-145.8 -238.39)"/><path class="cls-1" d="M339.36,291.49l-.44-.37a1.47,1.47,0,0,1,.86-.5,1.6,1.6,0,0,1,.7,0l-.13.55a1.34,1.34,0,0,0-.46,0A.93.93,0,0,0,339.36,291.49Z" transform="translate(-145.8 -238.39)"/></svg>