<svg xmlns="http://www.w3.org/2000/svg" viewBox="0 0 539.33 242.79"><defs><style>.cls-1{fill:#1d1d1b;}</style></defs><g id="Layer_2" data-name="Layer 2"><g id="Layer_2-2" data-name="Layer 2"><path class="cls-1" d="M510.64,0H194.37a28.71,28.71,0,0,0-28.68,28.69V64.16H11a11,11,0,0,0,0,22H165.69v25.19H66.39a11,11,0,0,0,0,22h99.3v25.18H123a11,11,0,0,0,0,22h42.74v33.58a28.71,28.71,0,0,0,28.68,28.68H510.64a28.72,28.72,0,0,0,28.69-28.68V28.69A28.72,28.72,0,0,0,510.64,0ZM492.33,24l-97.5,82.51-15.48,13.1-26.84,22.71-26.84-22.71-15.48-13.1L212.69,24ZM185.69,211.85V28.69a8.55,8.55,0,0,1,.09-1.25l108.93,92.17Zm27,3.36,97.5-82.51,35.86,30.35a10,10,0,0,0,12.92,0l35.86-30.35,97.5,82.51Zm306.64-3.35-109-92.25L519.24,27.43a8.69,8.69,0,0,1,.09,1.26Z"/></g></g></svg>